<?xml version="1.0" encoding="utf-8"?>
<!-- Generator: Adobe Illustrator 25.3.1, SVG Export Plug-In . SVG Version: 6.00 Build 0)  -->
<svg version="1.1" id="Layer_1" xmlns="http://www.w3.org/2000/svg" xmlns:xlink="http://www.w3.org/1999/xlink" x="0px" y="0px"
	 viewBox="0 0 700 200" style="enable-background:new 0 0 700 200;" xml:space="preserve">
<style type="text/css">
	.st0{fill:#6706CE;}
</style>
<g>
	<path class="st0" d="M90.47,97.9h0.24c4.2-7.56,11.4-10.92,19.92-10.92h4.2v21c-3-1.68-5.88-2.04-9.24-2.04
		c-12.12,0-15.12,8.04-15.12,18.6v24.84H68.64V87.82h21.84V97.9z"/>
	<path class="st0" d="M193.7,118.66c0,20.88-17.28,32.76-37.08,32.76c-19.68,0-37.08-11.76-37.08-32.76s17.28-32.88,37.08-32.88
		C176.42,85.78,193.7,97.66,193.7,118.66z M142.58,118.66c0,7.8,5.16,13.8,14.04,13.8c8.88,0,14.04-6,14.04-13.8
		c0-7.56-5.16-13.92-14.04-13.92C147.74,104.74,142.58,111.1,142.58,118.66z"/>
	<path class="st0" d="M200.38,49.78h21.84v44.04c4.68-5.4,12-8.04,19.08-8.04c18.24,0,30.84,15.12,30.84,32.76
		c0,17.76-12.72,32.88-31.08,32.88c-7.2,0-14.64-2.76-18.6-8.88h-0.24v6.84h-21.84V49.78z M221.5,118.66c0,7.8,5.16,13.8,14.04,13.8
		c8.88,0,14.04-6,14.04-13.8c0-7.56-5.16-13.92-14.04-13.92C226.66,104.74,221.5,111.1,221.5,118.66z"/>
	<path class="st0" d="M352.39,118.66c0,20.88-17.28,32.76-37.08,32.76c-19.68,0-37.08-11.76-37.08-32.76s17.28-32.88,37.08-32.88
		S352.39,97.66,352.39,118.66z M301.27,118.66c0,7.8,5.16,13.8,14.04,13.8c8.88,0,14.04-6,14.04-13.8c0-7.56-5.16-13.92-14.04-13.92
		C306.43,104.74,301.27,111.1,301.27,118.66z"/>
	<path class="st0" d="M386.47,149.38h-21.84v-43.56h-7.68v-18h7.68v-7.8c0-8.52,0.24-14.76,6.24-21.6c5.4-6.36,13.2-9.84,21.48-9.84
		c3.36,0,6.36,0.6,9.36,2.16v18.84c-2.52-1.08-4.8-2.04-7.68-2.04c-5.64,0-7.56,3.36-7.56,10.32v9.96h15.24v18h-15.24V149.38z"/>
	<path class="st0" d="M431.47,149.38h-21.84v-99.6h21.84V149.38z"/>
	<path class="st0" d="M512.45,118.66c0,20.88-17.28,32.76-37.08,32.76c-19.68,0-37.08-11.76-37.08-32.76s17.28-32.88,37.08-32.88
		C495.17,85.78,512.45,97.66,512.45,118.66z M461.33,118.66c0,7.8,5.16,13.8,14.04,13.8c8.88,0,14.04-6,14.04-13.8
		c0-7.56-5.16-13.92-14.04-13.92C466.49,104.74,461.33,111.1,461.33,118.66z"/>
	<path class="st0" d="M547.85,121.18l15.48-33.36h12.96l15.48,33.36l15.48-33.36h24.12l-32.16,61.56h-14.16l-15.24-33.72
		l-15.24,33.72h-14.16l-32.16-61.56h24.24L547.85,121.18z"/>
</g>
</svg>
