<svg xmlns="http://www.w3.org/2000/svg" width="40" height="40" fill="none"><path fill="url(#a)" fill-rule="evenodd" d="M25 29.19h11.667V10.858H25.001v18.334Zm-1.666 0V10.858h-2.5v3.334h.834v1.666h-.834v3.334h.834v1.666h-.834v3.334h.834v1.666h-.834v3.334h2.5Zm15-19.166v20c0 .46-.372.833-.833.833H20a.833.833 0 0 1-.834-.833v-4.167h-.833v-1.666h.834v-3.334h-.834v-1.666h.834v-3.334h-.834v-1.666h.834v-4.167c0-.46.372-.834.833-.834h17.5c.46 0 .833.374.833.834Zm-19.167 22.5h1.667v1.98c0 .302-.163.58-.427.728L15.74 37.84a.833.833 0 0 1-.836-.014l-8.667-5.215a.834.834 0 0 1-.403-.715v-5.432l-3.7-1.809a.835.835 0 0 1-.467-.748V15.44c0-.301.164-.58.427-.727l3.74-2.09V6.858c0-.3.16-.576.421-.724l8.077-4.608a.832.832 0 0 1 .788-.02l5.256 2.661c.28.141.457.43.457.743l.001 2.613h-1.666l-.001-2.1-4.399-2.227-1.434.818v6.01h-1.666v-5.06L7.5 7.342v4.68l3.869 2.345L15 12.072V8.754h1.668v3.777a.833.833 0 0 1-.389.704l-3.778 2.388v2.734h3.333v1.59h-3.913L7.937 22.4l-.874-1.42 3.771-2.321v-2.67l-3.659-2.217a.731.731 0 0 1-.1.067l-3.74 2.09-.002 2.538 3.705-2.47.925 1.387-4.63 3.086.001 2.917 3.7 1.808c.046.023.084.055.125.085l2.342-1.756 1 1.333-3 2.25v4.318l3.85 2.318 1.15-.96v-6.926h1.667v5.538l2-1.667 1.068 1.28-4.373 3.645 2.486 1.496 3.819-2.134v-1.491Z" clip-rule="evenodd"/><defs><linearGradient id="a" x1="20" x2="20" y1="1.417" y2="37.945" gradientUnits="userSpaceOnUse"><stop stop-color="#7C00FF"/><stop offset="1" stop-color="#3100FF"/></linearGradient></defs></svg>