<?xml version="1.0" encoding="UTF-8"?>
<svg xmlns="http://www.w3.org/2000/svg" xmlns:xlink="http://www.w3.org/1999/xlink" width="200px" height="200px" viewBox="0 0 200 200" version="1.1">
<defs>
<linearGradient id="linear0" gradientUnits="userSpaceOnUse" x1="20" y1="1.417" x2="20" y2="37.945" gradientTransform="matrix(5,0,0,5,0,0)">
<stop offset="0" style="stop-color:rgb(48.627451%,0%,100%);stop-opacity:1;"/>
<stop offset="1" style="stop-color:rgb(19.215686%,0%,100%);stop-opacity:1;"/>
</linearGradient>
</defs>
<g id="surface1">
<path style=" stroke:none;fill-rule:evenodd;fill:url(#linear0);" d="M 125 145.949219 L 183.335938 145.949219 L 183.335938 54.289062 L 125.003906 54.289062 L 125.003906 145.960938 Z M 116.671875 145.949219 L 116.671875 54.289062 L 104.171875 54.289062 L 104.171875 70.960938 L 108.339844 70.960938 L 108.339844 79.289062 L 104.171875 79.289062 L 104.171875 95.960938 L 108.339844 95.960938 L 108.339844 104.289062 L 104.171875 104.289062 L 104.171875 120.960938 L 108.339844 120.960938 L 108.339844 129.289062 L 104.171875 129.289062 L 104.171875 145.960938 L 116.671875 145.960938 Z M 191.671875 50.121094 L 191.671875 150.121094 C 191.671875 152.421875 189.808594 154.285156 187.503906 154.285156 L 100 154.285156 C 98.894531 154.285156 97.832031 153.847656 97.050781 153.066406 C 96.269531 152.285156 95.828125 151.226562 95.828125 150.121094 L 95.828125 129.285156 L 91.664062 129.285156 L 91.664062 120.953125 L 95.835938 120.953125 L 95.835938 104.285156 L 91.664062 104.285156 L 91.664062 95.953125 L 95.835938 95.953125 L 95.835938 79.285156 L 91.664062 79.285156 L 91.664062 70.953125 L 95.835938 70.953125 L 95.835938 50.121094 C 95.835938 47.820312 97.695312 45.949219 100 45.949219 L 187.5 45.949219 C 189.800781 45.949219 191.664062 47.820312 191.664062 50.121094 Z M 95.835938 162.621094 L 104.171875 162.621094 L 104.171875 172.519531 C 104.171875 174.03125 103.355469 175.421875 102.035156 176.160156 L 78.699219 189.199219 C 77.394531 189.929688 75.800781 189.902344 74.519531 189.128906 L 31.183594 163.054688 C 29.933594 162.300781 29.167969 160.941406 29.171875 159.480469 L 29.171875 132.320312 L 10.671875 123.273438 C 9.242188 122.574219 8.339844 121.125 8.335938 119.535156 L 8.335938 77.199219 C 8.335938 75.695312 9.15625 74.300781 10.46875 73.566406 L 29.171875 63.113281 L 29.171875 34.289062 C 29.171875 32.789062 29.96875 31.410156 31.273438 30.671875 L 71.660156 7.628906 C 72.875 6.9375 74.351562 6.898438 75.601562 7.53125 L 101.878906 20.835938 C 103.28125 21.539062 104.164062 22.984375 104.164062 24.550781 L 104.171875 37.613281 L 95.839844 37.613281 L 95.835938 27.113281 L 73.839844 15.980469 L 66.671875 20.070312 L 66.671875 50.121094 L 58.339844 50.121094 L 58.339844 24.820312 L 37.5 36.710938 L 37.5 60.109375 L 56.84375 71.835938 L 75 60.359375 L 75 43.769531 L 83.339844 43.769531 L 83.339844 62.65625 C 83.339844 64.085938 82.605469 65.414062 81.394531 66.175781 L 62.503906 78.113281 L 62.503906 91.785156 L 79.171875 91.785156 L 79.171875 99.734375 L 59.605469 99.734375 L 39.683594 112 L 35.316406 104.898438 L 54.171875 93.296875 L 54.171875 79.945312 L 35.875 68.859375 C 35.71875 68.984375 35.550781 69.097656 35.375 69.195312 L 16.675781 79.644531 L 16.664062 92.335938 L 35.191406 79.984375 L 39.816406 86.921875 L 16.664062 102.351562 L 16.671875 116.933594 L 35.171875 125.976562 C 35.398438 126.089844 35.589844 126.25 35.796875 126.398438 L 47.503906 117.621094 L 52.503906 124.285156 L 37.503906 135.535156 L 37.503906 157.125 L 56.753906 168.714844 L 62.503906 163.914062 L 62.503906 129.285156 L 70.839844 129.285156 L 70.839844 156.976562 L 80.839844 148.640625 L 86.179688 155.039062 L 64.316406 173.265625 L 76.746094 180.746094 L 95.839844 170.074219 L 95.839844 162.621094 Z M 95.835938 162.621094 "/>
</g>
</svg>
